<svg xmlns="http://www.w3.org/2000/svg" viewBox="0 0 253 140" fill="none">
  <path
    d="M126.339 2.5C149.789 2.5 171.014 5.53153 190.038 11.5615L190.05 11.5654C209.098 17.4954 223.816 25.6349 234.354 35.8848L234.361 35.8906L234.367 35.8975C245.019 46.1114 250.179 57.3448 250.179 69.6611C250.179 81.9773 245.019 93.2101 234.367 103.424L234.361 103.431L234.354 103.437C224.142 113.369 210.006 121.37 191.812 127.351L190.038 127.923C171.014 133.844 149.788 136.821 126.339 136.821C102.89 136.821 81.6642 133.844 62.6396 127.923H62.6406C43.5879 121.884 28.7802 113.687 18.0771 103.424C7.58815 93.2171 2.50012 81.9848 2.5 69.6611C2.5 57.3373 7.588 46.1043 18.0771 35.8975C28.7765 25.6379 43.5791 17.4956 62.6279 11.5654L62.6406 11.5615C81.6641 5.53159 102.889 2.50003 126.339 2.5Z"
    stroke="#c0c1c5"
    stroke-width="5"
  />
  <rect
    x="49.9314"
    y="20.7788"
    width="152.816"
    height="97.7638"
    stroke="#c0c1c5"
    stroke-width="5"
  />
  <path
    d="M126.543 44.4075C142.16 44.4075 156.176 47.4964 166.194 52.3762C176.38 57.3381 181.665 63.7159 181.666 69.9749C181.666 76.234 176.38 82.6125 166.194 87.5745C156.176 92.4543 142.16 95.5432 126.543 95.5432C110.927 95.5432 96.9111 92.4543 86.8931 87.5745C76.7064 82.6125 71.4214 76.234 71.4214 69.9749C71.4216 63.7159 76.7067 57.3381 86.8931 52.3762C96.9111 47.4964 110.927 44.4075 126.543 44.4075Z"
    stroke="#c0c1c5"
    stroke-width="5"
  />
</svg>
