<svg width="663" height="132" viewBox="0 0 663 132" fill="none" xmlns="http://www.w3.org/2000/svg">
<path d="M298.634 60.196C293.503 60.196 288.841 59.2427 284.646 57.336C280.486 55.4293 277.21 52.7947 274.818 49.432C272.461 46.0693 271.282 42.3253 271.282 38.2C271.282 34.0747 272.461 30.3307 274.818 26.968C277.21 23.6053 280.486 20.9707 284.646 19.064C288.841 17.1573 293.503 16.204 298.634 16.204C303.765 16.204 308.41 17.1573 312.57 19.064C316.765 20.9707 320.041 23.6053 322.398 26.968C324.79 30.3307 325.986 34.0747 325.986 38.2C325.986 42.3253 324.79 46.0693 322.398 49.432C320.041 52.7947 316.765 55.4293 312.57 57.336C308.41 59.2427 303.765 60.196 298.634 60.196ZM298.634 49.016C301.373 49.016 303.817 48.548 305.966 47.612C308.15 46.676 309.866 45.3933 311.114 43.764C312.362 42.1 312.986 40.2453 312.986 38.2C312.986 36.1547 312.362 34.3173 311.114 32.688C309.866 31.024 308.15 29.724 305.966 28.788C303.817 27.852 301.373 27.384 298.634 27.384C295.895 27.384 293.434 27.852 291.25 28.788C289.101 29.724 287.402 31.024 286.154 32.688C284.906 34.3173 284.282 36.1547 284.282 38.2C284.282 40.2453 284.906 42.1 286.154 43.764C287.402 45.3933 289.101 46.676 291.25 47.612C293.434 48.548 295.895 49.016 298.634 49.016ZM331.871 17.4H364.735C367.647 17.4 370.281 17.9893 372.639 19.168C374.996 20.3467 376.851 21.976 378.203 24.056C379.555 26.136 380.231 28.4413 380.231 30.972C380.231 33.5027 379.589 35.7907 378.307 37.836C377.024 39.8813 375.256 41.4933 373.003 42.672C370.749 43.8507 368.236 44.44 365.463 44.44H344.247V59H331.871V17.4ZM362.707 35.028C364.336 35.028 365.619 34.612 366.555 33.78C367.525 32.9133 368.011 31.8213 368.011 30.504C368.011 29.2213 367.473 28.164 366.399 27.332C365.359 26.5 363.955 26.084 362.187 26.084H344.247V35.028H362.707ZM399.785 27.852H382.313V17.4H429.633V27.852H412.161V59H399.785V27.852ZM434.296 17.4H446.672V59H434.296V17.4ZM455.015 17.4H474.983L484.551 49.068L494.119 17.4H514.087V59H502.179V27.644L492.039 59H477.063L466.923 27.644V59H455.015V17.4ZM522.402 17.4H534.778V59H522.402V17.4ZM567.717 59.884C562.551 59.884 557.923 59.208 553.833 57.856C549.742 56.504 546.553 54.6667 544.265 52.344C541.977 49.9867 540.833 47.352 540.833 44.44H553.313C553.313 45.5493 553.954 46.5547 555.237 47.456C556.519 48.3227 558.287 48.9987 560.541 49.484C562.829 49.9693 565.377 50.212 568.185 50.212C570.542 50.212 572.587 50.056 574.321 49.744C576.089 49.432 577.458 48.9987 578.429 48.444C579.399 47.8547 579.885 47.196 579.885 46.468C579.885 45.6707 579.365 45.0467 578.325 44.596C577.285 44.1107 575.967 43.7293 574.373 43.452C572.778 43.1747 570.559 42.8627 567.717 42.516C562.482 41.8573 558.114 41.1467 554.613 40.384C551.146 39.6213 548.113 38.3733 545.513 36.64C542.913 34.9067 541.613 32.5493 541.613 29.568C541.613 26.8293 542.791 24.4893 545.149 22.548C547.506 20.572 550.626 19.0813 554.509 18.076C558.391 17.036 562.621 16.516 567.197 16.516C572.119 16.516 576.383 17.1747 579.989 18.492C583.629 19.7747 586.419 21.5427 588.361 23.796C590.337 26.0147 591.325 28.5453 591.325 31.388H578.845C578.845 30.452 578.273 29.62 577.129 28.892C576.019 28.1293 574.477 27.5573 572.501 27.176C570.525 26.76 568.289 26.552 565.793 26.552C563.505 26.552 561.511 26.6907 559.813 26.968C558.149 27.2453 556.831 27.644 555.861 28.164C554.925 28.6493 554.457 29.2387 554.457 29.932C554.457 30.6253 554.925 31.18 555.861 31.596C556.831 32.012 558.149 32.3413 559.813 32.584C561.477 32.8267 563.453 33.0693 565.741 33.312C571.079 33.8667 575.551 34.508 579.157 35.236C582.762 35.9293 585.917 37.16 588.621 38.928C591.359 40.696 592.729 43.14 592.729 46.26C592.729 48.9293 591.619 51.304 589.401 53.384C587.217 55.464 584.218 57.076 580.405 58.22C576.591 59.3293 572.362 59.884 567.717 59.884ZM598.777 17.4H618.745L628.313 49.068L637.881 17.4H657.849V59H645.941V27.644L635.801 59H620.825L610.685 27.644V59H598.777V17.4Z" fill="black"/>
<path d="M275.926 110.855V77.2549H285.88V102.287H306.754V110.855H275.926ZM314.791 110.855V85.6969H302.107V77.2549H337.471V85.6969H324.787V110.855H314.791ZM341.264 110.855V77.2549H349.202L361.382 77.2129C371.882 77.2129 379.484 84.4369 379.484 94.0549C379.484 103.673 371.714 110.855 360.962 110.855H349.202H341.264ZM351.218 102.119L360.962 102.203C366.128 102.203 369.236 98.7169 369.236 94.0549C369.236 89.3509 365.792 85.8649 360.122 85.8649C355.754 85.8649 351.932 85.9069 351.218 85.9909V102.119ZM387.315 111.737C384.417 111.737 382.191 109.511 382.191 106.571C382.191 103.673 384.417 101.489 387.315 101.489C390.213 101.489 392.397 103.673 392.397 106.571C392.397 109.511 390.213 111.737 387.315 111.737Z" fill="black"/>
<path d="M124 0.5C146.986 0.500028 167.86 3.34618 186.627 9.02832L185.768 11.6943L184.477 11.3076L184.475 11.3066L182.771 10.8154C165.101 5.8111 145.52 3.29007 124 3.29004C101.786 3.29007 81.6371 5.97649 63.5254 11.3076L61.7793 11.8311L61.7676 11.835L61.7598 11.8369L60.0342 12.3652L60.0312 12.3662C42.285 17.9006 28.481 25.3655 18.4424 34.6504L18.4395 34.6533C8.29073 44.1816 3.4259 54.6017 3.42578 66C3.4259 77.3947 8.28762 87.8121 18.4297 97.3379L18.4326 97.3398C28.801 106.933 43.1855 114.635 61.7793 120.324L61.7812 120.325C80.2071 125.86 100.77 128.667 123.5 128.708V131.497C100.512 131.456 79.6413 128.617 60.8838 122.98H60.8848C41.9875 117.198 27.1637 109.31 16.3857 99.334H16.3867C6.1002 89.6762 0.832527 78.9476 0.515625 67.1377L0.503906 66.5752L0.5 66C0.500123 53.7398 5.77063 42.6313 16.3857 32.665C27.163 22.6901 41.9863 14.8536 60.8828 9.1748H60.8848C79.1871 3.57462 99.502 0.684035 121.832 0.508789L124 0.5ZM187.585 9.31836C206.258 14.986 220.848 22.7744 231.384 32.666L231.387 32.668C242.155 42.6351 247.5 53.7423 247.5 66L247.496 66.5742C247.331 78.6039 241.987 89.5201 231.387 99.332L231.384 99.334C220.759 109.309 206.013 117.197 187.114 122.979L186.985 123.019C168.262 128.629 147.434 131.457 124.5 131.497V128.708C147.23 128.667 167.793 125.86 186.219 120.325L186.221 120.324C204.812 114.636 219.11 106.938 229.318 97.3584L229.329 97.3486L229.347 97.333L229.353 97.3271L230.294 96.4385L230.298 96.4346C239.951 87.1452 244.574 77.0253 244.574 66C244.574 54.9739 239.951 44.8541 230.299 35.5654L229.349 34.6689L229.347 34.667L229.329 34.6514C219.214 25.1554 205.08 17.5586 186.725 11.9844L187.585 9.31836Z" fill="black" stroke="black"/>
<mask id="path-4-inside-1_2005_2668" fill="white">
<path fill-rule="evenodd" clip-rule="evenodd" d="M201.447 17.3182H46.5531V114.682H201.447V17.3182ZM124.2 92.8908C155.435 92.8908 180.755 80.9848 180.755 66.298C180.755 51.6112 155.435 39.7052 124.2 39.7052C92.9659 39.7052 67.6453 51.6112 67.6453 66.298C67.6453 80.9848 92.9659 92.8908 124.2 92.8908Z"/>
</mask>
<path fill-rule="evenodd" clip-rule="evenodd" d="M201.447 17.3182H46.5531V114.682H201.447V17.3182ZM124.2 92.8908C155.435 92.8908 180.755 80.9848 180.755 66.298C180.755 51.6112 155.435 39.7052 124.2 39.7052C92.9659 39.7052 67.6453 51.6112 67.6453 66.298C67.6453 80.9848 92.9659 92.8908 124.2 92.8908Z" fill="black"/>
<path d="M46.5531 17.3182V12.3182H41.5531V17.3182H46.5531ZM201.447 17.3182H206.447V12.3182H201.447V17.3182ZM46.5531 114.682H41.5531V119.682H46.5531V114.682ZM201.447 114.682V119.682H206.447V114.682H201.447ZM46.5531 17.3182V22.3182H201.447V17.3182V12.3182H46.5531V17.3182ZM46.5531 114.682H51.5531V17.3182H46.5531H41.5531V114.682H46.5531ZM201.447 114.682V109.682H46.5531V114.682V119.682H201.447V114.682ZM201.447 17.3182H196.447V114.682H201.447H206.447V17.3182H201.447ZM180.755 66.298H175.755C175.755 70.5649 171.888 75.9574 162.063 80.5772C152.632 85.012 139.251 87.8908 124.2 87.8908V92.8908V97.8908C140.385 97.8908 155.281 94.8166 166.318 89.6267C176.962 84.6218 185.755 76.7178 185.755 66.298H180.755ZM124.2 39.7052V44.7052C139.251 44.7052 152.632 47.5839 162.063 52.0188C171.888 56.6386 175.755 62.031 175.755 66.298H180.755H185.755C185.755 55.8781 176.962 47.9742 166.318 42.9693C155.281 37.7794 140.385 34.7052 124.2 34.7052V39.7052ZM67.6453 66.298H72.6453C72.6453 62.031 76.5126 56.6386 86.3375 52.0188C95.769 47.5839 109.15 44.7052 124.2 44.7052V39.7052V34.7052C108.016 34.7052 93.1197 37.7794 82.0823 42.9693C71.4384 47.9742 62.6453 55.8781 62.6453 66.298H67.6453ZM124.2 92.8908V87.8908C109.15 87.8908 95.769 85.012 86.3375 80.5772C76.5126 75.9574 72.6453 70.5649 72.6453 66.298H67.6453H62.6453C62.6453 76.7178 71.4384 84.6218 82.0823 89.6267C93.1197 94.8166 108.016 97.8908 124.2 97.8908V92.8908Z" fill="black" mask="url(#path-4-inside-1_2005_2668)"/>
</svg>
